<svg xmlns="http://www.w3.org/2000/svg" viewBox="0 0 160 160" role="img" aria-labelledby="title desc">
  <title id="title">Documentation AP3</title>
  <desc id="desc">Illustration technique avec serveurs et securite reseau.</desc>
  <rect width="160" height="160" rx="28" fill="#edf4ff"/>
  <rect x="26" y="36" width="42" height="74" rx="10" fill="#1f3b64"/>
  <rect x="92" y="36" width="42" height="74" rx="10" fill="#1f3b64"/>
  <rect x="34" y="48" width="26" height="6" rx="3" fill="#7db6ff"/>
  <rect x="34" y="64" width="26" height="6" rx="3" fill="#7db6ff"/>
  <rect x="34" y="80" width="26" height="6" rx="3" fill="#7db6ff"/>
  <rect x="100" y="48" width="26" height="6" rx="3" fill="#7db6ff"/>
  <rect x="100" y="64" width="26" height="6" rx="3" fill="#7db6ff"/>
  <rect x="100" y="80" width="26" height="6" rx="3" fill="#7db6ff"/>
  <path d="M47 110c10 12 18 12 33 0 15 12 23 12 33 0" fill="none" stroke="#1e73e8" stroke-width="5" stroke-linecap="round"/>
  <path d="M80 52l20 8v16c0 16-13 25-20 28-7-3-20-12-20-28V60l20-8z" fill="#1e73e8"/>
  <path d="M72 76l6 6 12-14" fill="none" stroke="#ffffff" stroke-width="4" stroke-linecap="round" stroke-linejoin="round"/>
</svg>
