<svg xmlns="http://www.w3.org/2000/svg" viewBox="0 0 160 160" role="img" aria-labelledby="title desc">
  <title id="title">Documentation AP4</title>
  <desc id="desc">Illustration de documentation technique securite civile et supervision.</desc>
  <rect width="160" height="160" rx="28" fill="#fff3ea"/>
  <rect x="30" y="30" width="100" height="70" rx="14" fill="#ffffff" stroke="#1e73e8" stroke-width="4"/>
  <rect x="44" y="44" width="24" height="14" rx="4" fill="#ff8a3d"/>
  <rect x="74" y="44" width="42" height="8" rx="4" fill="#a8c8ff"/>
  <rect x="74" y="58" width="28" height="8" rx="4" fill="#a8c8ff"/>
  <path d="M48 86h18l10-14 14 10 18-20" fill="none" stroke="#1e73e8" stroke-width="5" stroke-linecap="round" stroke-linejoin="round"/>
  <circle cx="48" cy="86" r="5" fill="#1e73e8"/>
  <circle cx="76" cy="72" r="5" fill="#ff8a3d"/>
  <circle cx="90" cy="82" r="5" fill="#1e73e8"/>
  <circle cx="108" cy="62" r="5" fill="#ff8a3d"/>
  <path d="M80 110l20 8v12c0 13-10 21-20 25-10-4-20-12-20-25v-12l20-8z" fill="#1e73e8"/>
  <path d="M72 128l6 6 12-14" fill="none" stroke="#ffffff" stroke-width="4" stroke-linecap="round" stroke-linejoin="round"/>
</svg>
